<mxfile host="app.diagrams.net" modified="2021-09-12T15:14:20.456Z" agent="5.0 (Macintosh; Intel Mac OS X 10_15_7) AppleWebKit/537.36 (KHTML, like Gecko) Chrome/93.0.4577.63 Safari/537.36" etag="srzKygmWoZFhjqS7em75" version="14.9.8" type="github" pages="2">
  <diagram id="bbfpOz1Bsv4NJrllMgqd" name="Page-1">
    <mxGraphModel dx="946" dy="532" grid="1" gridSize="10" guides="1" tooltips="1" connect="1" arrows="1" fold="1" page="1" pageScale="1" pageWidth="827" pageHeight="1169" math="0" shadow="0">
      <root>
        <mxCell id="0" />
        <mxCell id="1" parent="0" />
        <mxCell id="Wib5NE-mty5T0zvvyje9-11" value="" style="rounded=1;whiteSpace=wrap;html=1;" parent="1" vertex="1">
          <mxGeometry x="280" y="210" width="220" height="100" as="geometry" />
        </mxCell>
        <mxCell id="Wib5NE-mty5T0zvvyje9-22" style="edgeStyle=orthogonalEdgeStyle;rounded=0;orthogonalLoop=1;jettySize=auto;html=1;entryX=0;entryY=0.5;entryDx=0;entryDy=0;" parent="1" source="HuvUIUyrEitbKuRpBFxz-1" target="Wib5NE-mty5T0zvvyje9-1" edge="1">
          <mxGeometry relative="1" as="geometry" />
        </mxCell>
        <mxCell id="HuvUIUyrEitbKuRpBFxz-1" value="" style="rounded=0;whiteSpace=wrap;html=1;" parent="1" vertex="1">
          <mxGeometry x="60" y="500" width="90" height="40" as="geometry" />
        </mxCell>
        <mxCell id="Wib5NE-mty5T0zvvyje9-23" style="edgeStyle=orthogonalEdgeStyle;rounded=0;orthogonalLoop=1;jettySize=auto;html=1;entryX=0;entryY=0.5;entryDx=0;entryDy=0;" parent="1" source="Wib5NE-mty5T0zvvyje9-1" target="Wib5NE-mty5T0zvvyje9-4" edge="1">
          <mxGeometry relative="1" as="geometry" />
        </mxCell>
        <mxCell id="Wib5NE-mty5T0zvvyje9-1" value="" style="ellipse;whiteSpace=wrap;html=1;aspect=fixed;" parent="1" vertex="1">
          <mxGeometry x="380" y="500" width="40" height="40" as="geometry" />
        </mxCell>
        <mxCell id="Wib5NE-mty5T0zvvyje9-2" value="" style="rounded=0;whiteSpace=wrap;html=1;" parent="1" vertex="1">
          <mxGeometry x="240" y="630" width="90" height="40" as="geometry" />
        </mxCell>
        <mxCell id="Wib5NE-mty5T0zvvyje9-35" style="edgeStyle=orthogonalEdgeStyle;rounded=0;orthogonalLoop=1;jettySize=auto;html=1;entryX=1;entryY=0.5;entryDx=0;entryDy=0;" parent="1" source="Wib5NE-mty5T0zvvyje9-3" target="Wib5NE-mty5T0zvvyje9-21" edge="1">
          <mxGeometry relative="1" as="geometry" />
        </mxCell>
        <mxCell id="Wib5NE-mty5T0zvvyje9-39" style="edgeStyle=orthogonalEdgeStyle;rounded=0;orthogonalLoop=1;jettySize=auto;html=1;exitX=1;exitY=0.5;exitDx=0;exitDy=0;" parent="1" source="Wib5NE-mty5T0zvvyje9-3" edge="1">
          <mxGeometry relative="1" as="geometry">
            <mxPoint x="880" y="280" as="targetPoint" />
          </mxGeometry>
        </mxCell>
        <mxCell id="Wib5NE-mty5T0zvvyje9-3" value="" style="rounded=0;whiteSpace=wrap;html=1;" parent="1" vertex="1">
          <mxGeometry x="630" y="260" width="90" height="40" as="geometry" />
        </mxCell>
        <mxCell id="Wib5NE-mty5T0zvvyje9-4" value="" style="rounded=0;whiteSpace=wrap;html=1;" parent="1" vertex="1">
          <mxGeometry x="630" y="500" width="90" height="40" as="geometry" />
        </mxCell>
        <mxCell id="Wib5NE-mty5T0zvvyje9-5" value="" style="rounded=0;whiteSpace=wrap;html=1;" parent="1" vertex="1">
          <mxGeometry x="630" y="380" width="90" height="40" as="geometry" />
        </mxCell>
        <mxCell id="Wib5NE-mty5T0zvvyje9-6" value="" style="ellipse;whiteSpace=wrap;html=1;aspect=fixed;" parent="1" vertex="1">
          <mxGeometry x="360" y="260" width="40" height="40" as="geometry" />
        </mxCell>
        <mxCell id="Wib5NE-mty5T0zvvyje9-7" value="" style="ellipse;whiteSpace=wrap;html=1;aspect=fixed;" parent="1" vertex="1">
          <mxGeometry x="400" y="260" width="40" height="40" as="geometry" />
        </mxCell>
        <mxCell id="Wib5NE-mty5T0zvvyje9-8" value="" style="ellipse;whiteSpace=wrap;html=1;aspect=fixed;" parent="1" vertex="1">
          <mxGeometry x="1160" y="880" width="40" height="40" as="geometry" />
        </mxCell>
        <mxCell id="Wib5NE-mty5T0zvvyje9-9" value="" style="ellipse;whiteSpace=wrap;html=1;aspect=fixed;" parent="1" vertex="1">
          <mxGeometry x="1290" y="880" width="40" height="40" as="geometry" />
        </mxCell>
        <mxCell id="Wib5NE-mty5T0zvvyje9-12" value="" style="ellipse;whiteSpace=wrap;html=1;aspect=fixed;" parent="1" vertex="1">
          <mxGeometry x="320" y="260" width="40" height="40" as="geometry" />
        </mxCell>
        <mxCell id="Wib5NE-mty5T0zvvyje9-14" value="" style="ellipse;whiteSpace=wrap;html=1;aspect=fixed;" parent="1" vertex="1">
          <mxGeometry x="440" y="260" width="40" height="40" as="geometry" />
        </mxCell>
        <mxCell id="Wib5NE-mty5T0zvvyje9-16" value="" style="endArrow=none;html=1;" parent="1" edge="1">
          <mxGeometry width="50" height="50" relative="1" as="geometry">
            <mxPoint x="320" y="259" as="sourcePoint" />
            <mxPoint x="480" y="259" as="targetPoint" />
          </mxGeometry>
        </mxCell>
        <mxCell id="Wib5NE-mty5T0zvvyje9-17" value="" style="endArrow=none;html=1;" parent="1" edge="1">
          <mxGeometry width="50" height="50" relative="1" as="geometry">
            <mxPoint x="320" y="300" as="sourcePoint" />
            <mxPoint x="480" y="300" as="targetPoint" />
          </mxGeometry>
        </mxCell>
        <mxCell id="Wib5NE-mty5T0zvvyje9-18" value="task" style="text;html=1;strokeColor=none;fillColor=none;align=center;verticalAlign=middle;whiteSpace=wrap;rounded=0;" parent="1" vertex="1">
          <mxGeometry x="320" y="270" width="40" height="20" as="geometry" />
        </mxCell>
        <mxCell id="Wib5NE-mty5T0zvvyje9-19" value="task" style="text;html=1;strokeColor=none;fillColor=none;align=center;verticalAlign=middle;whiteSpace=wrap;rounded=0;" parent="1" vertex="1">
          <mxGeometry x="360" y="270" width="40" height="20" as="geometry" />
        </mxCell>
        <mxCell id="Wib5NE-mty5T0zvvyje9-20" value="task" style="text;html=1;strokeColor=none;fillColor=none;align=center;verticalAlign=middle;whiteSpace=wrap;rounded=0;" parent="1" vertex="1">
          <mxGeometry x="400" y="270" width="40" height="20" as="geometry" />
        </mxCell>
        <mxCell id="Wib5NE-mty5T0zvvyje9-34" style="edgeStyle=orthogonalEdgeStyle;rounded=0;orthogonalLoop=1;jettySize=auto;html=1;exitX=0.5;exitY=0;exitDx=0;exitDy=0;" parent="1" source="Wib5NE-mty5T0zvvyje9-21" edge="1">
          <mxGeometry relative="1" as="geometry">
            <mxPoint x="460" y="260" as="targetPoint" />
          </mxGeometry>
        </mxCell>
        <mxCell id="Wib5NE-mty5T0zvvyje9-21" value="task" style="text;html=1;strokeColor=none;fillColor=none;align=center;verticalAlign=middle;whiteSpace=wrap;rounded=0;" parent="1" vertex="1">
          <mxGeometry x="440" y="270" width="40" height="20" as="geometry" />
        </mxCell>
        <mxCell id="Wib5NE-mty5T0zvvyje9-25" value="" style="endArrow=classic;html=1;entryX=0;entryY=0.5;entryDx=0;entryDy=0;" parent="1" target="Wib5NE-mty5T0zvvyje9-11" edge="1">
          <mxGeometry width="50" height="50" relative="1" as="geometry">
            <mxPoint x="150" y="520" as="sourcePoint" />
            <mxPoint x="200" y="470" as="targetPoint" />
          </mxGeometry>
        </mxCell>
        <mxCell id="Wib5NE-mty5T0zvvyje9-27" value="" style="endArrow=classic;html=1;entryX=0;entryY=0.5;entryDx=0;entryDy=0;" parent="1" target="Wib5NE-mty5T0zvvyje9-2" edge="1">
          <mxGeometry width="50" height="50" relative="1" as="geometry">
            <mxPoint x="150" y="520" as="sourcePoint" />
            <mxPoint x="210" y="610" as="targetPoint" />
          </mxGeometry>
        </mxCell>
        <mxCell id="Wib5NE-mty5T0zvvyje9-30" value="" style="endArrow=classic;html=1;" parent="1" edge="1">
          <mxGeometry width="50" height="50" relative="1" as="geometry">
            <mxPoint x="650" y="380" as="sourcePoint" />
            <mxPoint x="650" y="300" as="targetPoint" />
          </mxGeometry>
        </mxCell>
        <mxCell id="Wib5NE-mty5T0zvvyje9-31" value="" style="endArrow=classic;html=1;" parent="1" edge="1">
          <mxGeometry width="50" height="50" relative="1" as="geometry">
            <mxPoint x="1090" y="810" as="sourcePoint" />
            <mxPoint x="1090" y="910" as="targetPoint" />
          </mxGeometry>
        </mxCell>
        <mxCell id="Wib5NE-mty5T0zvvyje9-36" value="" style="endArrow=classic;html=1;" parent="1" edge="1">
          <mxGeometry width="50" height="50" relative="1" as="geometry">
            <mxPoint x="700" y="300" as="sourcePoint" />
            <mxPoint x="700" y="380" as="targetPoint" />
          </mxGeometry>
        </mxCell>
        <mxCell id="Wib5NE-mty5T0zvvyje9-37" value="" style="rounded=1;whiteSpace=wrap;html=1;" parent="1" vertex="1">
          <mxGeometry x="880" y="210" width="260" height="300" as="geometry" />
        </mxCell>
        <mxCell id="Wib5NE-mty5T0zvvyje9-40" value="" style="rounded=1;whiteSpace=wrap;html=1;" parent="1" vertex="1">
          <mxGeometry x="900" y="250" width="220" height="90" as="geometry" />
        </mxCell>
      </root>
    </mxGraphModel>
  </diagram>
  <diagram id="WKtfS7hhpS6sPku_dYIC" name="Page-2">
    <mxGraphModel dx="1773" dy="532" grid="1" gridSize="10" guides="1" tooltips="1" connect="1" arrows="1" fold="1" page="1" pageScale="1" pageWidth="827" pageHeight="1169" math="0" shadow="0">
      <root>
        <mxCell id="35rtSHoNIr0Ckvx6hufZ-0" />
        <mxCell id="35rtSHoNIr0Ckvx6hufZ-1" parent="35rtSHoNIr0Ckvx6hufZ-0" />
        <mxCell id="35rtSHoNIr0Ckvx6hufZ-9" style="edgeStyle=orthogonalEdgeStyle;rounded=0;orthogonalLoop=1;jettySize=auto;html=1;entryX=0;entryY=0.5;entryDx=0;entryDy=0;" edge="1" parent="35rtSHoNIr0Ckvx6hufZ-1" source="35rtSHoNIr0Ckvx6hufZ-2" target="35rtSHoNIr0Ckvx6hufZ-7">
          <mxGeometry relative="1" as="geometry">
            <Array as="points">
              <mxPoint x="320" y="230" />
              <mxPoint x="320" y="130" />
            </Array>
          </mxGeometry>
        </mxCell>
        <mxCell id="35rtSHoNIr0Ckvx6hufZ-10" style="edgeStyle=orthogonalEdgeStyle;rounded=0;orthogonalLoop=1;jettySize=auto;html=1;entryX=0;entryY=0.5;entryDx=0;entryDy=0;" edge="1" parent="35rtSHoNIr0Ckvx6hufZ-1" source="35rtSHoNIr0Ckvx6hufZ-2" target="35rtSHoNIr0Ckvx6hufZ-4">
          <mxGeometry relative="1" as="geometry">
            <Array as="points">
              <mxPoint x="320" y="230" />
              <mxPoint x="320" y="310" />
            </Array>
          </mxGeometry>
        </mxCell>
        <mxCell id="35rtSHoNIr0Ckvx6hufZ-2" value="" style="rounded=1;whiteSpace=wrap;html=1;" vertex="1" parent="35rtSHoNIr0Ckvx6hufZ-1">
          <mxGeometry x="160" y="200" width="120" height="60" as="geometry" />
        </mxCell>
        <mxCell id="35rtSHoNIr0Ckvx6hufZ-3" value="" style="rounded=1;whiteSpace=wrap;html=1;" vertex="1" parent="35rtSHoNIr0Ckvx6hufZ-1">
          <mxGeometry x="-40" y="480" width="120" height="60" as="geometry" />
        </mxCell>
        <mxCell id="35rtSHoNIr0Ckvx6hufZ-12" style="edgeStyle=orthogonalEdgeStyle;rounded=0;orthogonalLoop=1;jettySize=auto;html=1;entryX=0;entryY=0.5;entryDx=0;entryDy=0;" edge="1" parent="35rtSHoNIr0Ckvx6hufZ-1" source="35rtSHoNIr0Ckvx6hufZ-4" target="35rtSHoNIr0Ckvx6hufZ-5">
          <mxGeometry relative="1" as="geometry">
            <Array as="points">
              <mxPoint x="590" y="310" />
              <mxPoint x="590" y="230" />
            </Array>
          </mxGeometry>
        </mxCell>
        <mxCell id="35rtSHoNIr0Ckvx6hufZ-4" value="" style="rounded=1;whiteSpace=wrap;html=1;" vertex="1" parent="35rtSHoNIr0Ckvx6hufZ-1">
          <mxGeometry x="390" y="280" width="120" height="60" as="geometry" />
        </mxCell>
        <mxCell id="35rtSHoNIr0Ckvx6hufZ-13" style="edgeStyle=orthogonalEdgeStyle;rounded=0;orthogonalLoop=1;jettySize=auto;html=1;entryX=0;entryY=0.5;entryDx=0;entryDy=0;" edge="1" parent="35rtSHoNIr0Ckvx6hufZ-1" source="35rtSHoNIr0Ckvx6hufZ-5" target="35rtSHoNIr0Ckvx6hufZ-6">
          <mxGeometry relative="1" as="geometry" />
        </mxCell>
        <mxCell id="35rtSHoNIr0Ckvx6hufZ-5" value="" style="rounded=1;whiteSpace=wrap;html=1;" vertex="1" parent="35rtSHoNIr0Ckvx6hufZ-1">
          <mxGeometry x="640" y="200" width="120" height="60" as="geometry" />
        </mxCell>
        <mxCell id="35rtSHoNIr0Ckvx6hufZ-6" value="" style="rounded=1;whiteSpace=wrap;html=1;" vertex="1" parent="35rtSHoNIr0Ckvx6hufZ-1">
          <mxGeometry x="840" y="200" width="120" height="60" as="geometry" />
        </mxCell>
        <mxCell id="35rtSHoNIr0Ckvx6hufZ-11" style="edgeStyle=orthogonalEdgeStyle;rounded=0;orthogonalLoop=1;jettySize=auto;html=1;entryX=0;entryY=0.5;entryDx=0;entryDy=0;" edge="1" parent="35rtSHoNIr0Ckvx6hufZ-1" source="35rtSHoNIr0Ckvx6hufZ-7" target="35rtSHoNIr0Ckvx6hufZ-5">
          <mxGeometry relative="1" as="geometry">
            <Array as="points">
              <mxPoint x="590" y="130" />
              <mxPoint x="590" y="230" />
            </Array>
          </mxGeometry>
        </mxCell>
        <mxCell id="35rtSHoNIr0Ckvx6hufZ-7" value="" style="rounded=1;whiteSpace=wrap;html=1;" vertex="1" parent="35rtSHoNIr0Ckvx6hufZ-1">
          <mxGeometry x="390" y="100" width="120" height="60" as="geometry" />
        </mxCell>
      </root>
    </mxGraphModel>
  </diagram>
</mxfile>
